<?xml version="1.0" encoding="UTF-8"?>
<!DOCTYPE svg PUBLIC "-//W3C//DTD SVG 1.1//EN" "http://www.w3.org/Graphics/SVG/1.1/DTD/svg11.dtd">
<!-- Creator: CorelDRAW 2020 (64-Bit) -->
<svg xmlns="http://www.w3.org/2000/svg" xml:space="preserve" width="297mm" height="154.855mm" version="1.1" style="shape-rendering:geometricPrecision; text-rendering:geometricPrecision; image-rendering:optimizeQuality; fill-rule:evenodd; clip-rule:evenodd"
viewBox="0 0 29700 15485.52"
 xmlns:xlink="http://www.w3.org/1999/xlink"
 xmlns:xodm="http://www.corel.com/coreldraw/odm/2003">
 <defs>
  <style type="text/css">
   <![CDATA[
    .fil2 {fill:#8CE563}
    .fil1 {fill:#F17F01}
    .fil0 {fill:#FEFEFE}
   ]]>
  </style>
 </defs>
 <g id="Layer_x0020_1">
  <metadata id="CorelCorpID_0Corel-Layer"/>
  <g id="_955223696">
   <path class="fil0" d="M5055.07 5937.99c4004.85,-920.29 4700.17,5993.34 1219.79,6786.21 -3957.06,901.52 -4740.36,-5977.12 -1219.79,-6786.21zm70.16 -2661.33c-3120.3,335.24 -5274.22,3097.83 -5033.89,6610.06 219.39,3207.7 2631.85,5861.45 6161.15,5484.31 3081.71,-329.26 5267.87,-3187.8 4978.33,-6681.16 -257.88,-3111.01 -2653.75,-5784 -6105.59,-5413.21z"/>
   <path class="fil1" d="M22087.48 9334.65l-2275.09 2564.07c-1825.23,2039.11 -1672.59,1808.63 -635.4,2731.68 315.62,280.91 922.95,1110.76 1513.51,721.39 273.52,-180.42 871.56,-1004.68 1131.9,-1280.19l1115.79 -1290.61c277.4,-335.05 829.85,-1068 1149.06,-1276.2 536.14,752.77 1509.9,1801.62 2126.25,2588.71 1501.17,1916.72 1319.43,1634.2 2638.01,507.03 351.07,-300.25 1149.82,-685.36 512.81,-1407.98 -359.7,-408.05 -740.73,-907.02 -1123.94,-1286.82l-2255.94 -2571.08c126.95,-305.56 250.29,-379.23 497.64,-635.49l2616.49 -3007.57c495.37,-711.72 -186.1,-1046.86 -1089.05,-1901.08 -846.62,-801.02 -1266.91,177.86 -2380.04,1487.62 -321.49,378.29 -1341.52,1678 -1662.92,1831.02l-1017.56 -1228.42c-371.55,-401.13 -640.62,-771.26 -1042.6,-1205 -981.35,-1058.9 -1027.9,-1852.06 -2491.72,-316.28 -301.21,315.99 -1029.89,673.8 -528.46,1324.74 645.26,837.72 2818.05,3030.52 3201.26,3650.46z"/>
   <path class="fil2" d="M15334.84 7874.43l-6.26 -6647.41c5.59,-1011.12 8.53,-1212.77 -1051.04,-1205.47 -2132.49,14.69 -1872.91,-367.86 -1872.91,2570.41l-1.52 6662.87c1.8,2110.12 1311.94,1515.77 5244.17,1515.87 660.52,0 1633.53,158.14 1800.67,-352.78 71.11,-217.11 73.67,-1952.65 4.27,-2171.47 -180.42,-568.46 -1326.45,-364.05 -1885.15,-364.05 -735.99,0 -1499.85,19.9 -2232.23,-7.97z"/>
  </g>
 </g>
</svg>
