<?xml version="1.0" encoding="UTF-8"?>
<!DOCTYPE svg PUBLIC "-//W3C//DTD SVG 1.1//EN" "http://www.w3.org/Graphics/SVG/1.1/DTD/svg11.dtd">
<!-- Creator: CorelDRAW 2020 (64-Bit) -->
<svg xmlns="http://www.w3.org/2000/svg" xml:space="preserve" width="297mm" height="194.193mm" version="1.1" style="shape-rendering:geometricPrecision; text-rendering:geometricPrecision; image-rendering:optimizeQuality; fill-rule:evenodd; clip-rule:evenodd"
viewBox="0 0 29700 19419.3"
 xmlns:xlink="http://www.w3.org/1999/xlink"
 xmlns:xodm="http://www.corel.com/coreldraw/odm/2003">
 <defs>
  <style type="text/css">
   <![CDATA[
    .fil0 {fill:#06031C}
    .fil1 {fill:#FDEBDA}
    .fil6 {fill:#FDEBDA;fill-rule:nonzero}
    .fil3 {fill:url(#id0);fill-rule:nonzero}
    .fil4 {fill:url(#id1);fill-rule:nonzero}
    .fil5 {fill:url(#id2);fill-rule:nonzero}
    .fil2 {fill:url(#id3);fill-rule:nonzero}
   ]]>
  </style>
  <linearGradient id="id0" gradientUnits="userSpaceOnUse" x1="20419.96" y1="11049.55" x2="18283.26" y2="4144.65">
   <stop offset="0" style="stop-opacity:1; stop-color:#00BEA4"/>
   <stop offset="1" style="stop-opacity:1; stop-color:#F47D17"/>
  </linearGradient>
  <linearGradient id="id1" gradientUnits="userSpaceOnUse" xlink:href="#id0" x1="13321.85" y1="13210.38" x2="11191.2" y2="6311.52">
  </linearGradient>
  <linearGradient id="id2" gradientUnits="userSpaceOnUse" xlink:href="#id0" x1="6531.58" y1="15335" x2="3803.37" y2="6492.54">
  </linearGradient>
  <linearGradient id="id3" gradientUnits="userSpaceOnUse" xlink:href="#id0" x1="27041.29" y1="9003.45" x2="24910.63" y2="2098.5">
  </linearGradient>
 </defs>
 <g id="Layer_x0020_1">
  <metadata id="CorelCorpID_0Corel-Layer"/>
  <g id="_940230912">
   <path class="fil0" d="M27870.85 9121.51c-1210.67,372.54 -2421.4,745.55 -3631.1,1120.98l-856.01 -5347.04 -657.85 5816.93c-1028.93,315.68 -2057.5,633.71 -3085.52,952.46 -110.82,-545.04 -217.72,-1087.72 -311.52,-1636.2l-247.47 1808.83c-1033.03,315.13 -2066.13,635.45 -3097.47,956.38l-407.79 -3335.72 0 3426.86c-4861.69,1524.78 -9719.71,3034.4 -14589.14,4536.12l0 -10442.02c2777.28,-860.96 5556.43,-1716.48 8334.97,-2573.39l0 2100.06c2781.14,-858.73 5550.63,-1717.87 8336,-2549.31l116.13 1429.23 56.86 -461.98c33.13,-265.94 68.63,-543.53 106.47,-833.07l30.12 -230.03c898.19,-280.91 1799.17,-556.8 2698.81,-833.31 55.29,499.11 100.44,993.63 144.44,1494.06 65.73,-535.2 134.36,-1068.77 208.29,-1602.94 1586.59,-493.92 3176.31,-982.1 4764.53,-1471 61.44,517.03 121.01,1034.24 179.32,1551.58 50.46,-551.08 102.07,-1102.27 150.9,-1653.59 954.63,-295.87 1909.8,-590 2864.79,-884.43l-1107.76 8660.54zm-18548.9 1700.79l2477.18 -764.87 0 1079.03 893.85 -275.9 0 -2385.25 -3371.03 1026.34 0 1320.65z"/>
   <path class="fil1" d="M27930.73 9316.35l-1815.89 559.4 -2039.15 631.05 -657 -4104.14 -505.02 4465.27 -1671.03 514.37 -1757.09 543.89 -125.61 -621.03 -94.28 688.88 -125.18 38.26c-472.37,144.14 -994.83,304.93 -1548.56,476.05l-1781.24 553.07 -30.12 -246.75 0 220.07 -143.72 45.09c-2430.81,762.32 -4860.85,1521.03 -7291.67,2276.72l-0.84 0c-2430.82,755.63 -4862.85,1508.6 -7297.47,2259.4l-264.31 81.48 0 -10868.33 144.56 -44.85c2200.67,-682.17 4402.67,-1361.08 6604.43,-2039.82l1994.85 -615.05 0 2099.93 651.27 -201.17c2488.94,-768.91 4971.13,-1535.7 7421.98,-2267.31l182.59 -54.5 0.24 -1.63 124.34 -38.93c719.47,-225.02 1511.19,-468.27 2302.43,-711.27 249.77,-76.71 499.77,-152.77 749.11,-230.93 1273.57,-396.44 2661.57,-823.59 4047.35,-1250.03 349.41,-107.55 699.07,-214.51 1048.24,-322.97 804.52,-249.35 1609.64,-497.6 2414.52,-745.61l752.25 -231.9 -1164.56 9104.72 -125.42 38.57zm-7264.39 -6289.06c55.29,499.11 100.44,993.63 144.44,1494.06 65.73,-535.2 134.36,-1068.77 208.29,-1602.94 1586.59,-493.92 3176.31,-982.1 4764.53,-1471 61.44,517.03 121.01,1034.24 179.32,1551.58 50.46,-551.08 102.07,-1102.27 150.9,-1653.59 954.63,-295.87 1909.8,-590 2864.79,-884.43l-1107.76 8660.54c-1210.67,372.54 -2421.4,745.55 -3631.1,1120.98l-856.01 -5347.04 -657.85 5816.93c-1028.93,315.68 -2057.5,633.71 -3085.52,952.46 -110.82,-545.04 -217.72,-1087.72 -311.52,-1636.2l-247.47 1808.83c-1033.03,315.13 -2066.13,635.45 -3097.47,956.38l-407.79 -3335.72 0 3426.86c-4861.69,1524.78 -9719.71,3034.4 -14589.14,4536.12l0 -10442.02c2777.28,-860.96 5556.43,-1716.48 8334.97,-2573.39l0 2100.06c2781.14,-858.73 5550.63,-1717.87 8336,-2549.31l116.13 1429.23 56.86 -461.98c33.13,-265.94 68.63,-543.53 106.47,-833.07l30.12 -230.03c898.19,-280.91 1799.17,-556.8 2698.81,-833.31zm-11344.39 7795.01l2477.18 -764.87 0 1079.03 893.85 -275.9 0 -2385.25 -3371.03 1026.34 0 1320.65zm204.44 -276.45l2477.17 -764.86 0 1079.03 484.98 -149.69 0 -1959.96 -2962.15 901.88 0 893.6z"/>
   <path class="fil2" d="M28565.04 976.91l-1007.08 7872.87 -3011.59 929.82 -1153.64 -7205.84 2097.95 -647.71c236.84,2012.6 409.23,3723.16 517.15,5131.74 106.41,-1490.61 215.84,-2818.2 327.08,-3982.21l132.19 -1450.96 2097.94 -647.71z"/>
   <path class="fil3" d="M23294.95 2603.94l-886.18 7838.04 -2478.26 765.1c-222.3,-1093.21 -423.84,-2355.55 -604.19,-3785.32 -82.21,664.54 -267.51,2046.27 -555.96,4143.49l-2463.72 760.64 -891.07 -7289.26 1933.71 -597.01 209.38 2577.98 201.42 2491.17c75.69,-1344.72 259.42,-3133.87 551.07,-5366.11l2059.31 -635.82c24.15,217.29 95.01,1027.49 211.02,2434.14l223.93 2809.33c117.69,-1867.68 303,-3718.09 555.96,-5549.36l1933.58 -597.01z"/>
   <polygon class="fil4" points="13071.06,11132.12 13071.06,7992.87 9345.01,9127.19 9348.63,6885.65 15229.3,5070.07 15229.3,12624 9294.07,14456.42 9294.07,11219.09 11452.37,10552.73 11452.37,11631.88 "/>
   <polygon class="fil5" points="1365.07,16936.19 1365.07,14169 6207.94,12673.79 6207.94,11981.9 1365.07,13477.04 1365.07,7250.58 8975.19,4901.06 8975.19,7668.38 4132.33,9163.52 4132.33,9855.47 8975.19,8360.27 8975.19,14586.68 "/>
   <path class="fil6" d="M10906.18 15430.73l151.5 -45.93 461.93 937.36 469.77 -1219.72 151.5 -45.93 -606.73 1575.6 -30.96 9.35 -597.01 -1210.73zm1467.62 -444.78l796.61 -241.44 0 135.69 -657.06 199.12 0 436.09 651.27 -197.37 0 135.69 -651.27 197.37 0 548.54 651.27 -197.38 0 135.69 -790.82 239.68 0 -1391.68zm1039.26 1076.73l0 -1391.68 30.05 -9.12 925.54 783.88 0 -1064.42 139.55 -42.25 0 1391.68 -31.69 9.6 -920.04 -776.21 0 1055.07 -143.41 43.45zm1431.76 -433.97l0 -1391.69 288.82 -87.52c207.99,-63.02 359.19,-92.05 453.23,-87.28 135.02,6.58 240.65,56.25 316.58,150.23 75.93,93.62 114.02,220.92 114.02,382.43 0,139.61 -30.06,271.14 -90.42,395.41 -60.12,124.16 -138.58,226.47 -234.55,305.96 -96.28,79.61 -231.3,145.71 -404.77,198.28l-442.91 134.18zm133.75 -172.33l160.56 -48.65c191.88,-58.18 324.67,-110.39 398.97,-156.81 104.3,-65.79 186.69,-151.86 246.44,-258.45 59.76,-106.96 89.51,-224.18 89.51,-352.07 0,-134.12 -32.29,-239.33 -97.23,-314.59 -64.65,-75.75 -155.07,-113.66 -270.71,-113.78 -86.92,-0.18 -230.03,30 -429.33,90.42l-98.21 29.75 0 1124.18zm1878.48 -1829.16l649.34 1194.85 -149.57 45.33 -217.41 -391.54 -603.16 182.82 -216.09 522.95 -155.06 46.96 657.07 -1590.81 34.88 -10.56zm-17.44 297.26l-239.38 579.08 477.8 -144.8 -238.42 -434.28zm737.82 615.72l118.24 -106.89c83.36,128.44 179.63,176.18 288.82,143.11 46.84,-14.25 90.78,-38.51 131.82,-72.56 41.05,-34.1 72.37,-73.03 93.68,-116 21.67,-43.04 32.29,-85.05 32.29,-126.09 0,-46.48 -15.81,-87.22 -47.5,-122.53 -43.58,-48.47 -123.07,-99.05 -239.02,-150.78 -116.31,-52.63 -188.68,-94.04 -217.11,-124.52 -49.43,-50.58 -73.94,-114.26 -73.94,-190.49 0,-60.42 14.49,-119.99 43.58,-178.6 29.09,-58.55 70.14,-110.09 123.07,-154.82 52.99,-44.91 110.15,-76.41 172.2,-95.18 65.91,-19.98 127.6,-22.58 184.76,-7.25 57.22,14.97 117.94,56.32 181.92,123.86l-113.71 120.72c-52.7,-53.54 -97.6,-85.77 -134.72,-96.52 -37.19,-10.98 -77.57,-9.72 -121.14,3.44 -56.56,17.14 -102.73,48.29 -138.59,93.08 -35.85,45.08 -53.96,92.28 -53.96,142.32 0,30.06 6.46,57.52 19.08,82.09 12.55,24.62 35.85,48.22 69.41,71.7 18.11,11.96 78.52,40.2 180.59,84.14 120.84,52.58 203.83,106.6 248.74,162.07 44.9,55.89 67.54,118.78 67.54,188.92 0,100.74 -38.45,200.27 -114.98,297.75 -76.9,97.96 -170.28,163.39 -280.13,196.71 -84.62,25.65 -161.52,26.31 -230.33,1.93 -68.8,-24.33 -132.42,-81 -190.61,-169.61z"/>
   <polygon class="fil1" points="10002.92,16236.7 10002.92,16428.34 653.44,19261.87 653.44,19070.23 "/>
   <path class="fil1" d="M28075.77 10759.34l-3.2 192.55 -8966.74 2717.58 0 -191.64c2989.98,-906.16 5979.96,-1812.33 8969.94,-2718.49z"/>
  </g>
 </g>
</svg>
